<?xml version="1.0" standalone="no"?>
<!DOCTYPE svg PUBLIC "-//W3C//DTD SVG 20010904//EN"
 "http://www.w3.org/TR/2001/REC-SVG-20010904/DTD/svg10.dtd">
<svg version="1.0" xmlns="http://www.w3.org/2000/svg"
 width="22.000000pt" height="23.000000pt" viewBox="0 0 22.000000 23.000000"
 preserveAspectRatio="xMidYMid meet">
<metadata>
Created by potrace 1.16, written by Peter Selinger 2001-2019
</metadata>
<g transform="translate(0.000000,23.000000) scale(0.100000,-0.100000)"
fill="#000000" stroke="none">
<path d="M0 198 c0 -32 0 -32 15 -11 9 13 23 27 33 32 14 9 11 10 -15 11 -31
0 -33 -2 -33 -32z"/>
<path d="M172 219 c10 -5 24 -19 33 -32 15 -21 15 -21 15 11 0 30 -2 32 -32
32 -27 -1 -30 -2 -16 -11z"/>
<path d="M0 34 l0 -34 110 0 110 0 0 34 0 34 -29 -29 c-43 -42 -119 -42 -162
0 l-29 29 0 -34z"/>
</g>
</svg>
