<svg fill="#000000" xmlns="http://www.w3.org/2000/svg"  viewBox="0 0 100 100" width="100px" height="100px"><path d="M 20 20 C 16.698375 20 14 22.698375 14 26 L 14 79 A 1.0001 1.0001 0 0 0 15 80 L 76 80 A 1.0001 1.0001 0 0 0 76.974609 79.224609 L 85.974609 40.224609 A 1.0001 1.0001 0 0 0 85 39 L 78 39 L 78 32 C 78 30.35503 76.64497 29 75 29 L 51 29 L 51 26 C 51 22.698375 48.301625 20 45 20 L 33 20 L 20 20 z M 20 22 L 33 22 L 45 22 C 47.220375 22 49 23.779625 49 26 L 49 30 A 1.0001 1.0001 0 0 0 50 31 L 75 31 C 75.56503 31 76 31.43497 76 32 L 76 39 L 23 39 A 1.0001 1.0001 0 0 0 22.025391 39.775391 L 16 65.884766 L 16 26 C 16 23.779625 17.779625 22 20 22 z M 20 24 C 18.900924 24 18 24.900924 18 26 L 18 33.5 A 0.50005 0.50005 0 1 0 19 33.5 L 19 26 C 19 25.439076 19.439076 25 20 25 L 36.5 25 A 0.50005 0.50005 0 1 0 36.5 24 L 20 24 z M 39.5 24 A 0.50005 0.50005 0 1 0 39.5 25 L 41.5 25 A 0.50005 0.50005 0 1 0 41.5 24 L 39.5 24 z M 44.5 24 A 0.50005 0.50005 0 1 0 44.5 25 L 45 25 C 45.560924 25 46 25.439076 46 26 L 46 29.5 A 0.50005 0.50005 0 1 0 47 29.5 L 47 26 C 47 24.900924 46.099076 24 45 24 L 44.5 24 z M 23.794922 41 L 83.742188 41 L 75.205078 78 L 16 78 L 16 74.783203 L 23.794922 41 z M 29 45 A 0.50005 0.50005 0 0 0 28.513672 45.386719 L 26.431641 54.408203 A 0.50005 0.50005 0 0 0 26.919922 55.019531 L 48.345703 55.019531 A 0.50005 0.50005 0 0 0 48.832031 54.634766 L 50.955078 45.615234 A 0.50005 0.50005 0 0 0 50.46875 45 L 48 45 A 0.50005 0.50005 0 1 0 48 46 L 49.837891 46 L 47.949219 54.019531 L 27.546875 54.019531 L 29.398438 46 L 40.5 46 A 0.50005 0.50005 0 1 0 40.5 45 L 29 45 z M 43.5 45 A 0.50005 0.50005 0 1 0 43.5 46 L 45.5 46 A 0.50005 0.50005 0 1 0 45.5 45 L 43.5 45 z"/></svg>