<?xml version="1.0" standalone="no"?>
<!DOCTYPE svg PUBLIC "-//W3C//DTD SVG 20010904//EN"
 "http://www.w3.org/TR/2001/REC-SVG-20010904/DTD/svg10.dtd">
<svg version="1.0" xmlns="http://www.w3.org/2000/svg"
 width="22.000000pt" height="18.000000pt" viewBox="0 0 22.000000 18.000000"
 preserveAspectRatio="xMidYMid meet">
<metadata>
Created by potrace 1.16, written by Peter Selinger 2001-2019
</metadata>
<g transform="translate(0.000000,18.000000) scale(0.100000,-0.100000)"
fill="#000000" stroke="none">
<path d="M120 165 c7 -9 29 -15 51 -15 l38 0 4 -77 3 -78 2 93 2 92 -56 0
c-49 0 -55 -2 -44 -15z"/>
<path d="M20 90 l0 -70 76 0 c42 0 74 3 72 8 -1 4 -21 36 -42 70 -35 56 -42
62 -72 62 l-34 0 0 -70z m80 15 c0 -8 -4 -15 -10 -15 -5 0 -10 -7 -10 -15 0
-9 -9 -15 -25 -15 -21 0 -25 5 -25 30 0 28 3 30 35 30 24 0 35 -5 35 -15z"/>
<path d="M161 98 c12 -18 24 -35 26 -37 2 -2 3 12 3 32 0 33 -3 37 -26 37
l-25 0 22 -32z"/>
</g>
</svg>
