<?xml version="1.0" standalone="no"?>
<!DOCTYPE svg PUBLIC "-//W3C//DTD SVG 20010904//EN"
 "http://www.w3.org/TR/2001/REC-SVG-20010904/DTD/svg10.dtd">
<svg version="1.0" xmlns="http://www.w3.org/2000/svg"
 width="17.000000pt" height="22.000000pt" viewBox="0 0 17.000000 22.000000"
 preserveAspectRatio="xMidYMid meet">
<metadata>
Created by potrace 1.16, written by Peter Selinger 2001-2019
</metadata>
<g transform="translate(0.000000,22.000000) scale(0.100000,-0.100000)"
fill="#000000" stroke="none">
<path d="M0 135 l0 -85 20 20 c31 31 102 28 129 -6 l21 -27 0 92 0 91 -31 0
c-28 0 -29 -1 -15 -16 38 -38 -1 -112 -52 -99 -50 12 -68 61 -35 97 15 17 15
18 -10 18 l-27 0 0 -85z"/>
<path d="M62 191 c-20 -12 -11 -55 12 -59 27 -6 48 25 35 49 -10 20 -26 24
-47 10z"/>
<path d="M36 48 c-29 -41 -21 -48 49 -48 57 0 64 2 58 18 -19 54 -79 70 -107
30z"/>
</g>
</svg>
